<svg xmlns="http://www.w3.org/2000/svg" width="24" height="24" viewBox="0 0 24 24"><path d="M0,0H24V24H0Z" fill="none"/><path d="M7,15H17v4a2,2,0,0,1-2,2H9a2,2,0,0,1-2-2Z" fill="none" stroke="#fff" stroke-linecap="round" stroke-linejoin="round" stroke-width="2"/><path d="M12,9A6,6,0,0,0,6,3H3V5a6,6,0,0,0,6,6h3" fill="none" stroke="#fff" stroke-linecap="round" stroke-linejoin="round" stroke-width="2"/><path d="M12,11a6,6,0,0,1,6-6h3V6a6,6,0,0,1-6,6H12" fill="none" stroke="#fff" stroke-linecap="round" stroke-linejoin="round" stroke-width="2"/><line y1="6" transform="translate(12 9)" fill="none" stroke="#fff" stroke-linecap="round" stroke-linejoin="round" stroke-width="2"/></svg>