<svg xmlns="http://www.w3.org/2000/svg" width="24" height="24" viewBox="0 0 24 24"><path d="M0,0H24V24H0Z" fill="none"/><path d="M5,4H9a1,1,0,0,1,1,1V9a1,1,0,0,1-1,1H5" fill="none" stroke="#fff" stroke-linecap="round" stroke-linejoin="round" stroke-width="2"/><path d="M5,14H9a1,1,0,0,1,1,1v4a1,1,0,0,1-1,1H5" fill="none" stroke="#fff" stroke-linecap="round" stroke-linejoin="round" stroke-width="2"/><path d="M10,7h4a1,1,0,0,1,1,1v8a1,1,0,0,1-1,1H10" fill="none" stroke="#fff" stroke-linecap="round" stroke-linejoin="round" stroke-width="2"/><line x2="5" transform="translate(15 12)" fill="none" stroke="#fff" stroke-linecap="round" stroke-linejoin="round" stroke-width="2"/></svg>