<svg xmlns="http://www.w3.org/2000/svg" width="24" height="24" viewBox="0 0 24 24"><path d="M0,0H24V24H0Z" fill="none"/><path d="M12,12a4.768,4.768,0,0,0,5-4.5A4.768,4.768,0,0,0,12,3Z" fill="none" stroke="#fff" stroke-linecap="round" stroke-linejoin="round" stroke-width="2"/><path d="M12,12a4.768,4.768,0,0,0,4.5,5A4.768,4.768,0,0,0,21,12Z" fill="none" stroke="#fff" stroke-linecap="round" stroke-linejoin="round" stroke-width="2"/><path d="M12,12a4.768,4.768,0,0,0-5,4.5A4.768,4.768,0,0,0,12,21Z" fill="none" stroke="#fff" stroke-linecap="round" stroke-linejoin="round" stroke-width="2"/><path d="M12,12A4.768,4.768,0,0,0,7.5,7,4.768,4.768,0,0,0,3,12Z" fill="none" stroke="#fff" stroke-linecap="round" stroke-linejoin="round" stroke-width="2"/></svg>